# Blender v2.73 (sub 0) OBJ File: ''
# www.blender.org
o Cube
v 1.000000 -1.000000 -1.000000
v 1.000000 -1.000000 1.000000
v -1.000000 -1.000000 1.000000
v -1.000000 -1.000000 -1.000000
v 1.000000 1.000000 -0.999999
v 0.999999 1.000000 1.000001
v -1.000000 1.000000 1.000000
v -1.000000 1.000000 -1.000000
vt 0.333333 0.666667
vt 0.477333 1.136000
vt 0.170667 1.186667
vt 0.000000 0.666667
vt 0.000000 0.333333
vt 0.600000 0.568000
vt 0.333333 0.000000
vt 0.666667 0.000000
vt 0.000000 0.000000
vt 0.477333 0.469333
vt 1.144000 0.469333
vt 0.666667 0.333333
vt 0.837333 0.853333
vt 1.170667 0.186667
vn 0.000000 -1.000000 0.000000
vn 0.000000 1.000000 0.000000
vn 1.000000 0.000000 0.000000
vn -0.000000 0.000000 1.000000
vn -1.000000 -0.000000 -0.000000
vn 0.000000 0.000000 -1.000000
s off
f 2/1/1 3/2/1 4/3/1
f 8/1/2 7/4/2 6/5/2
f 5/6/3 6/7/3 2/8/3
f 6/9/4 7/7/4 3/10/4
f 3/11/5 7/12/5 8/8/5
f 1/12/6 4/13/6 8/1/6
f 1/4/1 2/1/1 4/3/1
f 5/6/2 8/1/2 6/5/2
f 1/12/3 5/6/3 2/8/3
f 2/5/4 6/9/4 3/10/4
f 4/14/5 3/11/5 8/8/5
f 5/6/6 1/12/6 8/1/6
